<svg width="285" height="60" viewBox="0 0 285 60" fill="none" xmlns="http://www.w3.org/2000/svg">
<path d="M85.8 18.8H86.62C86.6733 19.0133 86.72 19.2733 86.76 19.58C86.8133 19.8733 86.8533 20.1933 86.88 20.54C86.92 20.8733 86.9467 21.2067 86.96 21.54C86.9733 21.8733 86.98 22.1733 86.98 22.44C86.5133 22.7333 85.9267 22.94 85.22 23.06C84.5267 23.18 83.8133 23.24 83.08 23.24C81.9733 23.24 80.9667 23.1067 80.06 22.84C79.1667 22.56 78.4 22.1267 77.76 21.54C77.1333 20.94 76.6467 20.1867 76.3 19.28C75.9533 18.36 75.78 17.26 75.78 15.98C75.78 14.7133 75.9667 13.6267 76.34 12.72C76.7267 11.8 77.24 11.0467 77.88 10.46C78.52 9.87333 79.26 9.44667 80.1 9.18C80.9533 8.9 81.8467 8.76 82.78 8.76C83.66 8.76 84.4533 8.82667 85.16 8.96C85.88 9.08 86.4667 9.24667 86.92 9.46C86.92 9.67333 86.9067 9.94667 86.88 10.28C86.8667 10.6133 86.8333 10.9667 86.78 11.34C86.74 11.7 86.6867 12.06 86.62 12.42C86.5667 12.7667 86.5133 13.06 86.46 13.3H85.62L84.52 10.28C84.4 10.2133 84.2067 10.16 83.94 10.12C83.6733 10.08 83.4 10.06 83.12 10.06C82.5733 10.06 82.06 10.1733 81.58 10.4C81.1 10.6133 80.6733 10.96 80.3 11.44C79.9267 11.92 79.6333 12.54 79.42 13.3C79.2067 14.0467 79.1 14.9467 79.1 16C79.1 17.9067 79.48 19.3733 80.24 20.4C81 21.4267 82.0333 21.94 83.34 21.94C83.7133 21.94 84.0267 21.9133 84.28 21.86C84.5467 21.7933 84.7267 21.7067 84.82 21.6L85.8 18.8ZM97.4469 20.1C97.4469 20.3933 97.4469 20.6467 97.4469 20.86C97.4602 21.0733 97.4802 21.3 97.5069 21.54L98.8869 21.74V22.44C98.7269 22.52 98.5069 22.6 98.2269 22.68C97.9602 22.76 97.6735 22.84 97.3669 22.92C97.0735 22.9867 96.7802 23.04 96.4869 23.08C96.1935 23.1333 95.9335 23.1733 95.7069 23.2H95.0269C94.8935 22.8933 94.8135 22.5867 94.7869 22.28C94.7602 21.9733 94.7402 21.6 94.7269 21.16H94.6269C94.5602 21.4267 94.4469 21.6867 94.2869 21.94C94.1269 22.18 93.9202 22.4 93.6669 22.6C93.4269 22.7867 93.1402 22.94 92.8069 23.06C92.4735 23.18 92.1002 23.24 91.6869 23.24C91.2469 23.24 90.8402 23.1733 90.4669 23.04C90.0935 22.9067 89.7669 22.72 89.4869 22.48C89.2069 22.24 88.9869 21.9533 88.8269 21.62C88.6669 21.2733 88.5869 20.8867 88.5869 20.46C88.5869 19.86 88.7002 19.3667 88.9269 18.98C89.1535 18.5933 89.5069 18.28 89.9869 18.04C90.4802 17.7867 91.1069 17.6 91.8669 17.48C92.6402 17.36 93.5735 17.2733 94.6669 17.22C94.7735 16.0733 94.7269 15.2333 94.5269 14.7C94.3269 14.1667 93.8935 13.9 93.2269 13.9C92.8135 13.9 92.4335 13.9667 92.0869 14.1L91.1469 16.5H90.2669C90.1602 16.34 90.0535 16.16 89.9469 15.96C89.8535 15.7467 89.7602 15.5267 89.6669 15.3C89.5869 15.06 89.5135 14.82 89.4469 14.58C89.3935 14.34 89.3535 14.1067 89.3269 13.88C89.8335 13.5333 90.4869 13.26 91.2869 13.06C92.0869 12.86 92.9335 12.76 93.8269 12.76C94.5869 12.76 95.2069 12.8467 95.6869 13.02C96.1669 13.18 96.5402 13.4067 96.8069 13.7C97.0869 13.98 97.2802 14.3133 97.3869 14.7C97.4935 15.0867 97.5469 15.5 97.5469 15.94C97.5469 16.74 97.5269 17.4667 97.4869 18.12C97.4602 18.76 97.4469 19.42 97.4469 20.1ZM92.9469 21.64C93.2269 21.64 93.4669 21.5867 93.6669 21.48C93.8669 21.3733 94.0335 21.2467 94.1669 21.1C94.3135 20.9533 94.4202 20.7933 94.4869 20.62C94.5669 20.4467 94.6269 20.2933 94.6669 20.16V18.16C94.0402 18.1733 93.5269 18.2133 93.1269 18.28C92.7269 18.3467 92.4135 18.46 92.1869 18.62C91.9602 18.7667 91.8002 18.96 91.7069 19.2C91.6269 19.4267 91.5869 19.7067 91.5869 20.04C91.5869 20.5467 91.7069 20.94 91.9469 21.22C92.1869 21.5 92.5202 21.64 92.9469 21.64ZM109.8 27H104.36V26.22C104.733 26.0067 105.173 25.8467 105.68 25.74V22.58C105.52 22.78 105.273 22.94 104.94 23.06C104.606 23.18 104.273 23.24 103.94 23.24C103.326 23.24 102.76 23.1467 102.24 22.96C101.733 22.76 101.293 22.46 100.92 22.06C100.546 21.66 100.253 21.1533 100.04 20.54C99.8397 19.9267 99.7397 19.2 99.7397 18.36C99.7397 17.4 99.8464 16.5733 100.06 15.88C100.273 15.1733 100.573 14.5933 100.96 14.14C101.346 13.6733 101.806 13.3267 102.34 13.1C102.886 12.8733 103.493 12.76 104.16 12.76C104.493 12.76 104.8 12.8133 105.08 12.92C105.36 13.0133 105.56 13.14 105.68 13.3V9.62L104.16 9.46V8.68C104.346 8.6 104.6 8.52 104.92 8.44C105.24 8.36 105.573 8.28667 105.92 8.22C106.28 8.15333 106.626 8.1 106.96 8.06C107.293 8.00667 107.573 7.97333 107.8 7.96H108.48V13.42C108.666 13.22 108.926 13.06 109.26 12.94C109.606 12.82 109.966 12.76 110.34 12.76C110.94 12.76 111.486 12.8533 111.98 13.04C112.486 13.2267 112.92 13.5133 113.28 13.9C113.64 14.2867 113.92 14.7733 114.12 15.36C114.32 15.9333 114.42 16.6133 114.42 17.4C114.42 18.4133 114.306 19.2867 114.08 20.02C113.866 20.7533 113.566 21.36 113.18 21.84C112.793 22.32 112.333 22.6733 111.8 22.9C111.266 23.1267 110.693 23.24 110.08 23.24C109.786 23.24 109.486 23.1933 109.18 23.1C108.873 23.02 108.64 22.8933 108.48 22.72V25.74C108.973 25.82 109.413 25.98 109.8 26.22V27ZM104.64 21.98C104.866 21.98 105.066 21.9533 105.24 21.9C105.413 21.8333 105.593 21.7067 105.78 21.52V14.36C105.62 14.2533 105.453 14.1733 105.28 14.12C105.106 14.0533 104.886 14.02 104.62 14.02C104.353 14.02 104.106 14.08 103.88 14.2C103.653 14.32 103.453 14.52 103.28 14.8C103.106 15.0667 102.973 15.4267 102.88 15.88C102.786 16.3333 102.74 16.9 102.74 17.58C102.74 18.4867 102.786 19.2267 102.88 19.8C102.973 20.36 103.1 20.8067 103.26 21.14C103.433 21.46 103.633 21.68 103.86 21.8C104.1 21.92 104.36 21.98 104.64 21.98ZM109.5 14.02C109.273 14.02 109.073 14.0533 108.9 14.12C108.74 14.1733 108.566 14.28 108.38 14.44V21.62C108.54 21.7533 108.706 21.8467 108.88 21.9C109.053 21.9533 109.273 21.98 109.54 21.98C109.78 21.98 110.013 21.92 110.24 21.8C110.466 21.68 110.666 21.4733 110.84 21.18C111.013 20.8733 111.153 20.4733 111.26 19.98C111.366 19.4867 111.42 18.86 111.42 18.1C111.42 17.2867 111.373 16.6133 111.28 16.08C111.2 15.5467 111.08 15.1333 110.92 14.84C110.76 14.5333 110.56 14.32 110.32 14.2C110.08 14.08 109.806 14.02 109.5 14.02ZM124.4 20.1C124.4 20.3933 124.4 20.6467 124.4 20.86C124.413 21.0733 124.433 21.3 124.46 21.54L125.84 21.74V22.44C125.68 22.52 125.46 22.6 125.18 22.68C124.913 22.76 124.627 22.84 124.32 22.92C124.027 22.9867 123.733 23.04 123.44 23.08C123.147 23.1333 122.887 23.1733 122.66 23.2H121.98C121.847 22.8933 121.767 22.5867 121.74 22.28C121.713 21.9733 121.693 21.6 121.68 21.16H121.58C121.513 21.4267 121.4 21.6867 121.24 21.94C121.08 22.18 120.873 22.4 120.62 22.6C120.38 22.7867 120.093 22.94 119.76 23.06C119.427 23.18 119.053 23.24 118.64 23.24C118.2 23.24 117.793 23.1733 117.42 23.04C117.047 22.9067 116.72 22.72 116.44 22.48C116.16 22.24 115.94 21.9533 115.78 21.62C115.62 21.2733 115.54 20.8867 115.54 20.46C115.54 19.86 115.653 19.3667 115.88 18.98C116.107 18.5933 116.46 18.28 116.94 18.04C117.433 17.7867 118.06 17.6 118.82 17.48C119.593 17.36 120.527 17.2733 121.62 17.22C121.727 16.0733 121.68 15.2333 121.48 14.7C121.28 14.1667 120.847 13.9 120.18 13.9C119.767 13.9 119.387 13.9667 119.04 14.1L118.1 16.5H117.22C117.113 16.34 117.007 16.16 116.9 15.96C116.807 15.7467 116.713 15.5267 116.62 15.3C116.54 15.06 116.467 14.82 116.4 14.58C116.347 14.34 116.307 14.1067 116.28 13.88C116.787 13.5333 117.44 13.26 118.24 13.06C119.04 12.86 119.887 12.76 120.78 12.76C121.54 12.76 122.16 12.8467 122.64 13.02C123.12 13.18 123.493 13.4067 123.76 13.7C124.04 13.98 124.233 14.3133 124.34 14.7C124.447 15.0867 124.5 15.5 124.5 15.94C124.5 16.74 124.48 17.4667 124.44 18.12C124.413 18.76 124.4 19.42 124.4 20.1ZM119.9 21.64C120.18 21.64 120.42 21.5867 120.62 21.48C120.82 21.3733 120.987 21.2467 121.12 21.1C121.267 20.9533 121.373 20.7933 121.44 20.62C121.52 20.4467 121.58 20.2933 121.62 20.16V18.16C120.993 18.1733 120.48 18.2133 120.08 18.28C119.68 18.3467 119.367 18.46 119.14 18.62C118.913 18.7667 118.753 18.96 118.66 19.2C118.58 19.4267 118.54 19.7067 118.54 20.04C118.54 20.5467 118.66 20.94 118.9 21.22C119.14 21.5 119.473 21.64 119.9 21.64ZM132.073 27H126.553V26.22C127.006 26.0067 127.446 25.8467 127.873 25.74V14.42L126.553 14.26V13.48C126.766 13.3867 127.026 13.3 127.333 13.22C127.653 13.14 127.979 13.0733 128.313 13.02C128.646 12.9533 128.966 12.9 129.273 12.86C129.593 12.82 129.859 12.7867 130.073 12.76H130.753V15H130.773C130.999 14.36 131.353 13.8267 131.833 13.4C132.326 12.9733 133.006 12.76 133.873 12.76C134.459 12.76 134.986 12.86 135.453 13.06C135.933 13.2467 136.333 13.5467 136.653 13.96C136.986 14.36 137.239 14.88 137.413 15.52C137.599 16.1467 137.693 16.9 137.693 17.78C137.693 18.62 137.573 19.38 137.333 20.06C137.106 20.74 136.773 21.3133 136.333 21.78C135.906 22.2467 135.379 22.6067 134.753 22.86C134.139 23.1133 133.439 23.24 132.653 23.24C132.199 23.24 131.839 23.2067 131.573 23.14C131.319 23.0867 131.046 22.9867 130.753 22.84V25.74C130.966 25.7667 131.179 25.8133 131.393 25.88C131.606 25.96 131.833 26.0733 132.073 26.22V27ZM132.713 14.36C132.259 14.36 131.853 14.52 131.493 14.84C131.146 15.16 130.899 15.6533 130.753 16.32V21.64C130.966 21.8 131.193 21.92 131.433 22C131.673 22.0667 131.986 22.1 132.373 22.1C133.133 22.1 133.693 21.7333 134.053 21C134.413 20.2667 134.593 19.1933 134.593 17.78C134.593 16.6867 134.453 15.8467 134.173 15.26C133.906 14.66 133.419 14.36 132.713 14.36ZM138.9 13H144.22V13.78C144.074 13.86 143.9 13.94 143.7 14.02C143.514 14.1 143.287 14.18 143.02 14.26V18.76L142.8 20.62H142.9L143.68 19.12L147.34 13H151.12V13.78C150.694 14.02 150.254 14.18 149.8 14.26V21.74C150.054 21.8067 150.294 21.88 150.52 21.96C150.747 22.0267 150.947 22.1133 151.12 22.22V23H145.8V22.22C146.174 22.0067 146.574 21.8467 147 21.74V17.02L147.2 15.44H147.1L146.34 16.94L142.72 23H138.9V22.22C139.127 22.1133 139.347 22.0267 139.56 21.96C139.774 21.88 139.994 21.8067 140.22 21.74V14.26C139.7 14.18 139.26 14.02 138.9 13.78V13ZM167.19 23H160.31V22.24C160.577 22.1333 160.877 22.0267 161.21 21.92C161.557 21.8 161.903 21.7133 162.25 21.66V10.3H159.93L158.65 13.72H157.83C157.777 13.4533 157.723 13.1133 157.67 12.7C157.617 12.2867 157.57 11.86 157.53 11.42C157.49 10.98 157.457 10.5467 157.43 10.12C157.403 9.68 157.39 9.30667 157.39 9H170.11C170.11 9.32 170.097 9.69333 170.07 10.12C170.043 10.5467 170.01 10.98 169.97 11.42C169.93 11.86 169.883 12.2867 169.83 12.7C169.777 13.1 169.723 13.44 169.67 13.72H168.85L167.57 10.3H165.25V21.66C165.597 21.7267 165.937 21.8067 166.27 21.9C166.617 21.9933 166.923 22.1067 167.19 22.24V23ZM180.79 10.34C180.47 10.2733 180.19 10.1933 179.95 10.1C179.71 9.99333 179.477 9.88 179.25 9.76V9H184.09V9.76C183.943 9.86667 183.743 9.97333 183.49 10.08C183.25 10.1733 182.977 10.26 182.67 10.34L178.85 18.98C178.21 20.4467 177.543 21.54 176.85 22.26C176.157 22.9667 175.417 23.2467 174.63 23.1C174.523 22.9933 174.41 22.8333 174.29 22.62C174.183 22.3933 174.077 22.16 173.97 21.92C173.877 21.6667 173.797 21.4267 173.73 21.2C173.663 20.96 173.623 20.76 173.61 20.6L174.17 19.8L176.55 20.54C176.657 20.42 176.757 20.2733 176.85 20.1C176.943 19.9267 177.03 19.7333 177.11 19.52L171.79 10.34C171.537 10.2733 171.29 10.1933 171.05 10.1C170.823 9.99333 170.61 9.88 170.41 9.76V9H176.65V9.76C176.25 10 175.743 10.1933 175.13 10.34L177.95 15.76L178.37 17.04H178.41L178.81 15.72L180.79 10.34ZM189.122 21.66C189.482 21.7133 189.835 21.7933 190.182 21.9C190.542 21.9933 190.862 22.1067 191.142 22.24V23H184.482V22.24C184.735 22.0933 185.002 21.9733 185.282 21.88C185.575 21.7867 185.855 21.7133 186.122 21.66V10.34C185.815 10.2867 185.522 10.2133 185.242 10.12C184.962 10.0133 184.709 9.89333 184.482 9.76V9H187.002C187.535 9 188.142 8.97333 188.822 8.92C189.515 8.86667 190.149 8.84 190.722 8.84C191.429 8.84 192.115 8.91333 192.782 9.06C193.462 9.19333 194.062 9.42667 194.582 9.76C195.115 10.0933 195.542 10.54 195.862 11.1C196.182 11.6467 196.342 12.3333 196.342 13.16C196.342 13.9467 196.182 14.6267 195.862 15.2C195.555 15.7733 195.142 16.2467 194.622 16.62C194.102 16.9933 193.502 17.2733 192.822 17.46C192.142 17.6333 191.442 17.72 190.722 17.72C190.655 17.72 190.549 17.72 190.402 17.72C190.255 17.72 190.095 17.72 189.922 17.72C189.762 17.7067 189.602 17.7 189.442 17.7C189.295 17.6867 189.189 17.6733 189.122 17.66V21.66ZM190.202 10.14C189.935 10.14 189.722 10.1533 189.562 10.18C189.415 10.1933 189.269 10.22 189.122 10.26V16.34C189.242 16.38 189.422 16.4067 189.662 16.42C189.902 16.42 190.095 16.42 190.242 16.42C190.602 16.42 190.949 16.36 191.282 16.24C191.615 16.12 191.909 15.9333 192.162 15.68C192.429 15.4267 192.642 15.1 192.802 14.7C192.962 14.3 193.042 13.82 193.042 13.26C193.042 12.1933 192.782 11.4067 192.262 10.9C191.742 10.3933 191.055 10.14 190.202 10.14ZM203.295 23H197.275V22.24C197.528 22.1067 197.795 21.9867 198.075 21.88C198.355 21.7733 198.635 21.7 198.915 21.66V10.34C198.648 10.2733 198.368 10.2 198.075 10.12C197.782 10.0267 197.515 9.90667 197.275 9.76V9H203.295V9.76C203.095 9.88 202.868 9.99333 202.615 10.1C202.362 10.2067 202.088 10.2867 201.795 10.34V17.94L201.595 19.5L202.575 17.86L207.615 10.82V10.34C206.988 10.1933 206.462 10 206.035 9.76V9H212.055V9.76C211.828 9.90667 211.568 10.0267 211.275 10.12C210.995 10.2 210.708 10.2733 210.415 10.34V21.66C210.722 21.7133 211.008 21.7933 211.275 21.9C211.555 21.9933 211.815 22.1067 212.055 22.24V23H206.035V22.24C206.222 22.1467 206.442 22.0467 206.695 21.94C206.962 21.82 207.242 21.7267 207.535 21.66V14.08L207.735 12.5L206.835 14.08L201.715 21.22V21.66C202.022 21.7267 202.308 21.8133 202.575 21.92C202.842 22.0267 203.082 22.1333 203.295 22.24V23ZM223.261 18.8H224.081C224.134 19.0133 224.181 19.2733 224.221 19.58C224.274 19.8733 224.314 20.1933 224.341 20.54C224.381 20.8733 224.408 21.2067 224.421 21.54C224.434 21.8733 224.441 22.1733 224.441 22.44C223.974 22.7333 223.388 22.94 222.681 23.06C221.988 23.18 221.274 23.24 220.541 23.24C219.434 23.24 218.428 23.1067 217.521 22.84C216.628 22.56 215.861 22.1267 215.221 21.54C214.594 20.94 214.108 20.1867 213.761 19.28C213.414 18.36 213.241 17.26 213.241 15.98C213.241 14.7133 213.428 13.6267 213.801 12.72C214.188 11.8 214.701 11.0467 215.341 10.46C215.981 9.87333 216.721 9.44667 217.561 9.18C218.414 8.9 219.308 8.76 220.241 8.76C221.121 8.76 221.914 8.82667 222.621 8.96C223.341 9.08 223.928 9.24667 224.381 9.46C224.381 9.67333 224.368 9.94667 224.341 10.28C224.328 10.6133 224.294 10.9667 224.241 11.34C224.201 11.7 224.148 12.06 224.081 12.42C224.028 12.7667 223.974 13.06 223.921 13.3H223.081L221.981 10.28C221.861 10.2133 221.668 10.16 221.401 10.12C221.134 10.08 220.861 10.06 220.581 10.06C220.034 10.06 219.521 10.1733 219.041 10.4C218.561 10.6133 218.134 10.96 217.761 11.44C217.388 11.92 217.094 12.54 216.881 13.3C216.668 14.0467 216.561 14.9467 216.561 16C216.561 17.9067 216.941 19.3733 217.701 20.4C218.461 21.4267 219.494 21.94 220.801 21.94C221.174 21.94 221.488 21.9133 221.741 21.86C222.008 21.7933 222.188 21.7067 222.281 21.6L223.261 18.8ZM235.608 23H228.728V22.24C228.994 22.1333 229.294 22.0267 229.628 21.92C229.974 21.8 230.321 21.7133 230.668 21.66V10.3H228.348L227.068 13.72H226.248C226.194 13.4533 226.141 13.1133 226.088 12.7C226.034 12.2867 225.988 11.86 225.948 11.42C225.908 10.98 225.874 10.5467 225.848 10.12C225.821 9.68 225.808 9.30667 225.808 9H238.528C238.528 9.32 238.514 9.69333 238.488 10.12C238.461 10.5467 238.428 10.98 238.388 11.42C238.348 11.86 238.301 12.2867 238.248 12.7C238.194 13.1 238.141 13.44 238.088 13.72H237.268L235.988 10.3H233.668V21.66C234.014 21.7267 234.354 21.8067 234.688 21.9C235.034 21.9933 235.341 22.1067 235.608 22.24V23ZM245.248 23H239.228V22.24C239.481 22.1067 239.748 21.9867 240.028 21.88C240.308 21.7733 240.588 21.7 240.868 21.66V10.34C240.601 10.2733 240.321 10.2 240.028 10.12C239.735 10.0267 239.468 9.90667 239.228 9.76V9H245.248V9.76C245.048 9.88 244.821 9.99333 244.568 10.1C244.315 10.2067 244.041 10.2867 243.748 10.34V17.94L243.548 19.5L244.528 17.86L249.568 10.82V10.34C248.941 10.1933 248.415 10 247.988 9.76V9H254.008V9.76C253.781 9.90667 253.521 10.0267 253.228 10.12C252.948 10.2 252.661 10.2733 252.368 10.34V21.66C252.675 21.7133 252.961 21.7933 253.228 21.9C253.508 21.9933 253.768 22.1067 254.008 22.24V23H247.988V22.24C248.175 22.1467 248.395 22.0467 248.648 21.94C248.915 21.82 249.195 21.7267 249.488 21.66V14.08L249.688 12.5L248.788 14.08L243.668 21.22V21.66C243.975 21.7267 244.261 21.8133 244.528 21.92C244.795 22.0267 245.035 22.1333 245.248 22.24V23ZM262.394 9H267.754V9.76C267.527 9.90667 267.267 10.0333 266.974 10.14C266.681 10.2333 266.414 10.3 266.174 10.34L262.374 15.16C262.681 15.5867 263.041 16.0733 263.454 16.62C263.867 17.1533 264.307 17.7133 264.774 18.3C265.241 18.8733 265.721 19.46 266.214 20.06C266.707 20.6467 267.187 21.2067 267.654 21.74L268.614 22.32V23H265.134L264.334 22.44C264.014 22.04 263.674 21.6 263.314 21.12C262.967 20.6267 262.621 20.12 262.274 19.6C261.927 19.0667 261.587 18.5333 261.254 18C260.921 17.4667 260.607 16.9467 260.314 16.44H259.454V21.66C259.747 21.7133 260.014 21.7933 260.254 21.9C260.494 22.0067 260.701 22.12 260.874 22.24V23H254.814V22.24C255.081 22.1067 255.354 21.9933 255.634 21.9C255.914 21.7933 256.187 21.7133 256.454 21.66V10.34C256.147 10.3 255.847 10.2267 255.554 10.12C255.274 10.0133 255.027 9.89333 254.814 9.76V9H260.874V9.76C260.701 9.86667 260.487 9.97333 260.234 10.08C259.994 10.1867 259.734 10.2733 259.454 10.34V15.42L260.634 15.14L263.854 10.34C263.587 10.2867 263.321 10.2067 263.054 10.1C262.801 9.98 262.581 9.86667 262.394 9.76V9Z" fill="white"/>
<path d="M85.3271 36.5918H81.2139V48H79.5352V36.5918H75.4307V35.2031H85.3271V36.5918ZM89.4492 45.6182L91.6641 38.4902H93.4043L89.5811 49.4678C88.9893 51.0498 88.0488 51.8408 86.7598 51.8408L86.4521 51.8145L85.8457 51.7002V50.3818L86.2852 50.417C86.8359 50.417 87.2637 50.3057 87.5684 50.083C87.8789 49.8604 88.1338 49.4531 88.333 48.8613L88.6934 47.8945L85.3008 38.4902H87.0762L89.4492 45.6182ZM102.896 43.3506C102.896 44.7979 102.565 45.9639 101.903 46.8486C101.241 47.7334 100.345 48.1758 99.2139 48.1758C98.0596 48.1758 97.1514 47.8096 96.4893 47.0771V51.6562H94.8633V38.4902H96.3486L96.4277 39.5449C97.0898 38.7246 98.0098 38.3145 99.1875 38.3145C100.33 38.3145 101.232 38.7451 101.895 39.6064C102.562 40.4678 102.896 41.666 102.896 43.2012V43.3506ZM101.271 43.166C101.271 42.0938 101.042 41.2471 100.585 40.626C100.128 40.0049 99.501 39.6943 98.7041 39.6943C97.7197 39.6943 96.9814 40.1309 96.4893 41.0039V45.5479C96.9756 46.415 97.7197 46.8486 98.7217 46.8486C99.501 46.8486 100.119 46.541 100.576 45.9258C101.039 45.3047 101.271 44.3848 101.271 43.166ZM110.842 48C110.748 47.8125 110.672 47.4785 110.613 46.998C109.857 47.7832 108.955 48.1758 107.906 48.1758C106.969 48.1758 106.198 47.9121 105.595 47.3848C104.997 46.8516 104.698 46.1777 104.698 45.3633C104.698 44.373 105.073 43.6055 105.823 43.0605C106.579 42.5098 107.64 42.2344 109.005 42.2344H110.587V41.4873C110.587 40.9189 110.417 40.4678 110.077 40.1338C109.737 39.7939 109.236 39.624 108.574 39.624C107.994 39.624 107.508 39.7705 107.115 40.0635C106.723 40.3564 106.526 40.7109 106.526 41.127H104.892C104.892 40.6523 105.059 40.1953 105.393 39.7559C105.732 39.3105 106.189 38.959 106.764 38.7012C107.344 38.4434 107.979 38.3145 108.671 38.3145C109.767 38.3145 110.625 38.5898 111.246 39.1406C111.867 39.6855 112.189 40.4385 112.213 41.3994V45.7764C112.213 46.6494 112.324 47.3438 112.547 47.8594V48H110.842ZM108.144 46.7607C108.653 46.7607 109.137 46.6289 109.594 46.3652C110.051 46.1016 110.382 45.7588 110.587 45.3369V43.3857H109.312C107.32 43.3857 106.324 43.9688 106.324 45.1348C106.324 45.6445 106.494 46.043 106.834 46.3301C107.174 46.6172 107.61 46.7607 108.144 46.7607ZM120.905 39.835H116.52V48H114.885V38.4902H120.905V39.835ZM126.091 48.1758C124.802 48.1758 123.753 47.7539 122.944 46.9102C122.136 46.0605 121.731 44.9268 121.731 43.5088V43.21C121.731 42.2666 121.91 41.4258 122.268 40.6875C122.631 39.9434 123.135 39.3633 123.779 38.9473C124.43 38.5254 125.133 38.3145 125.889 38.3145C127.125 38.3145 128.086 38.7217 128.771 39.5361C129.457 40.3506 129.8 41.5166 129.8 43.0342V43.7109H123.357C123.381 44.6484 123.653 45.4072 124.175 45.9873C124.702 46.5615 125.37 46.8486 126.179 46.8486C126.753 46.8486 127.239 46.7314 127.638 46.4971C128.036 46.2627 128.385 45.9521 128.684 45.5654L129.677 46.3389C128.88 47.5635 127.685 48.1758 126.091 48.1758ZM125.889 39.6504C125.232 39.6504 124.682 39.8906 124.236 40.3711C123.791 40.8457 123.516 41.5137 123.41 42.375H128.174V42.252C128.127 41.4258 127.904 40.7871 127.506 40.3359C127.107 39.8789 126.568 39.6504 125.889 39.6504ZM139.459 48H137.833V43.9395H133.465V48H131.83V38.4902H133.465V42.6123H137.833V38.4902H139.459V48ZM149.145 39.8086H145.954V48H144.328V39.8086H141.199V38.4902H149.145V39.8086ZM153.838 46.8486C154.418 46.8486 154.925 46.6729 155.358 46.3213C155.792 45.9697 156.032 45.5303 156.079 45.0029H157.617C157.588 45.5479 157.4 46.0664 157.055 46.5586C156.709 47.0508 156.246 47.4434 155.666 47.7363C155.092 48.0293 154.482 48.1758 153.838 48.1758C152.543 48.1758 151.512 47.7451 150.744 46.8838C149.982 46.0166 149.602 44.833 149.602 43.333V43.0605C149.602 42.1348 149.771 41.3115 150.111 40.5908C150.451 39.8701 150.938 39.3105 151.57 38.9121C152.209 38.5137 152.962 38.3145 153.829 38.3145C154.896 38.3145 155.78 38.6338 156.483 39.2725C157.192 39.9111 157.57 40.7402 157.617 41.7598H156.079C156.032 41.1445 155.798 40.6406 155.376 40.248C154.96 39.8496 154.444 39.6504 153.829 39.6504C153.003 39.6504 152.361 39.9492 151.904 40.5469C151.453 41.1387 151.228 41.9971 151.228 43.1221V43.4297C151.228 44.5254 151.453 45.3691 151.904 45.9609C152.355 46.5527 153 46.8486 153.838 46.8486ZM166.512 39.8086H163.321V48H161.695V39.8086H158.566V38.4902H166.512V39.8086ZM168.243 48V38.4902H171.952C173.218 38.4902 174.188 38.7129 174.861 39.1582C175.541 39.5977 175.881 40.2451 175.881 41.1006C175.881 41.54 175.749 41.9385 175.485 42.2959C175.222 42.6475 174.832 42.917 174.316 43.1045C174.891 43.2393 175.351 43.5029 175.696 43.8955C176.048 44.2881 176.224 44.7568 176.224 45.3018C176.224 46.1748 175.901 46.8428 175.257 47.3057C174.618 47.7686 173.713 48 172.541 48H168.243ZM169.869 43.8252V46.6904H172.559C173.238 46.6904 173.745 46.5645 174.079 46.3125C174.419 46.0605 174.589 45.7061 174.589 45.249C174.589 44.2998 173.892 43.8252 172.497 43.8252H169.869ZM169.869 42.5244H171.97C173.493 42.5244 174.255 42.0791 174.255 41.1885C174.255 40.2979 173.534 39.8379 172.093 39.8086H169.869V42.5244ZM177.946 43.1572C177.946 42.2256 178.128 41.3877 178.491 40.6436C178.86 39.8994 179.37 39.3252 180.021 38.9209C180.677 38.5166 181.424 38.3145 182.262 38.3145C183.557 38.3145 184.603 38.7627 185.399 39.6592C186.202 40.5557 186.604 41.748 186.604 43.2363V43.3506C186.604 44.2764 186.425 45.1084 186.067 45.8467C185.716 46.5791 185.209 47.1504 184.547 47.5605C183.891 47.9707 183.135 48.1758 182.279 48.1758C180.99 48.1758 179.944 47.7275 179.142 46.8311C178.345 45.9346 177.946 44.748 177.946 43.2715V43.1572ZM179.581 43.3506C179.581 44.4053 179.824 45.252 180.311 45.8906C180.803 46.5293 181.459 46.8486 182.279 46.8486C183.105 46.8486 183.762 46.5264 184.248 45.8818C184.734 45.2314 184.978 44.3232 184.978 43.1572C184.978 42.1143 184.729 41.2705 184.23 40.626C183.738 39.9756 183.082 39.6504 182.262 39.6504C181.459 39.6504 180.812 39.9697 180.319 40.6084C179.827 41.2471 179.581 42.1611 179.581 43.3506Z" fill="white"/>
<circle cx="30" cy="30" r="29.5" stroke="white"/>
<path d="M63.2078 10.5356L61.0769 7.42788L59.2867 5.8765L59.2701 4.60788L58.4212 4L57.3559 6.26637L55.7459 5.22236L55.1886 5.78887L55.8148 7.0446L46.5703 15.8584L32.0115 22.9515L27.644 23.9181L26.6165 24.4447L23.9038 27.9511L22.7772 31.7466L22.5127 33.8448L23.0969 35.0974L23.1586 34.6399L24.1991 30.8548L23.2062 38.4985L22.0798 41.9438L20 52.4316H21.8884L21.3175 51.4826L22.3093 46.4718L26.0545 38.9928L25.3657 41.8043L28.2919 52.4316H30.2819L29.4497 51.3724L28.0537 47.2084L27.4639 40.9549L29.6087 36.0147L30.8934 34.7613L36.845 34.77L37.8978 35.8196L35.9732 50.1469L36.05 52.4316H37.9439L37.2455 51.3825L37.506 45.9273L40.4114 35.9413L40.7681 35.9438L47.1446 52.4316H49.0591L48.0865 51.4382L46.353 46.7498L43.6351 34.9205L44.3556 28.8518L44.0028 27.1587L44.3345 25.9676L56.7052 11.9222L58.5897 11.5542L63.3487 13.2859L63.6867 11.9442L63.2078 10.5356Z" fill="white"/>
</svg>
